MulatAbay-ThinItalic.ufo
<glyph name="exclam" format="2">
  <advance width="397"/>
  <unicode hex="0021"/>
  <note>
uni0021
</note>
  <outline>
    <contour>
      <point x="47" y="401" type="line"/>
      <point x="101" y="401" type="line"/>
      <point x="287" y="1456" type="line"/>
      <point x="233" y="1456" type="line"/>
    </contour>
    <contour>
      <point x="10" y="-6" type="curve" smooth="yes"/>
      <point x="41" y="-6"/>
      <point x="70" y="18"/>
      <point x="76" y="49" type="curve" smooth="yes"/>
      <point x="81" y="80"/>
      <point x="60" y="105"/>
      <point x="30" y="105" type="curve" smooth="yes"/>
      <point x="-1" y="105"/>
      <point x="-30" y="80"/>
      <point x="-35" y="49" type="curve" smooth="yes"/>
      <point x="-41" y="18"/>
      <point x="-21" y="-6"/>
    </contour>
  </outline>
</glyph>
<glyph name="M" format="2">
  <advance width="1756"/>
  <unicode hex="004D"/>
  <note>
uni004D
</note>
  <outline>
    <contour>
      <point x="9" y="0" type="line"/>
      <point x="63" y="0" type="line"/>
      <point x="305" y="1369" type="line"/>
      <point x="664" y="0" type="line"/>
      <point x="707" y="0" type="line"/>
      <point x="1554" y="1376" type="line"/>
      <point x="1311" y="0" type="line"/>
      <point x="1365" y="0" type="line"/>
      <point x="1622" y="1456" type="line"/>
      <point x="1543" y="1456" type="line"/>
      <point x="699" y="79" type="line"/>
      <point x="343" y="1456" type="line"/>
      <point x="266" y="1456" type="line"/>
    </contour>
  </outline>
</glyph>
<glyph name="j" format="2">
  <advance width="445"/>
  <unicode hex="006A"/>
  <note>
uni006A
</note>
  <outline>
    <contour>
      <point x="-313" y="-437" type="curve" smooth="yes"/>
      <point x="-133" y="-437"/>
      <point x="-9" y="-329"/>
      <point x="26" y="-129" type="curve" smooth="yes"/>
      <point x="240" y="1082" type="line"/>
      <point x="186" y="1082" type="line"/>
      <point x="-28" y="-129" type="line" smooth="yes"/>
      <point x="-56" y="-290"/>
      <point x="-154" y="-383"/>
      <point x="-303" y="-383" type="curve" smooth="yes"/>
      <point x="-335" y="-383"/>
      <point x="-365" y="-377"/>
      <point x="-395" y="-365" type="curve"/>
      <point x="-407" y="-417" type="line"/>
      <point x="-377" y="-430"/>
      <point x="-346" y="-437"/>
    </contour>
    <contour>
      <point x="268" y="1365" type="curve" smooth="yes"/>
      <point x="299" y="1365"/>
      <point x="328" y="1389"/>
      <point x="334" y="1420" type="curve" smooth="yes"/>
      <point x="339" y="1451"/>
      <point x="318" y="1476"/>
      <point x="287" y="1476" type="curve" smooth="yes"/>
      <point x="257" y="1476"/>
      <point x="228" y="1451"/>
      <point x="223" y="1420" type="curve" smooth="yes"/>
      <point x="217" y="1389"/>
      <point x="237" y="1365"/>
    </contour>
  </outline>
</glyph>
<glyph name="asciitilde" format="2">
  <advance width="1412"/>
  <unicode hex="007E"/>
  <note>
uni007E
</note>
  <outline>
    <contour>
      <point x="864" y="443" type="curve" smooth="yes"/>
      <point x="1027" y="443"/>
      <point x="1155" y="568"/>
      <point x="1188" y="752" type="curve"/>
      <point x="1132" y="753" type="line"/>
      <point x="1103" y="590"/>
      <point x="1008" y="496"/>
      <point x="874" y="496" type="curve" smooth="yes"/>
      <point x="798" y="496"/>
      <point x="752" y="513"/>
      <point x="643" y="629" type="curve" smooth="yes"/>
      <point x="534" y="744"/>
      <point x="470" y="774"/>
      <point x="374" y="774" type="curve" smooth="yes"/>
      <point x="207" y="774"/>
      <point x="84" y="653"/>
      <point x="51" y="462" type="curve"/>
      <point x="106" y="462" type="line"/>
      <point x="136" y="633"/>
      <point x="231" y="720"/>
      <point x="364" y="720" type="curve" smooth="yes"/>
      <point x="446" y="720"/>
      <point x="489" y="702"/>
      <point x="599" y="586" type="curve" smooth="yes"/>
      <point x="709" y="470"/>
      <point x="770" y="443"/>
    </contour>
  </outline>
</glyph>
<glyph name="ring" format="2">
  <advance width="586"/>
  <unicode hex="02DA"/>
  <note>
uni02DA
</note>
  <outline>
    <contour>
      <point x="308" y="1212" type="curve" smooth="yes"/>
      <point x="404" y="1212"/>
      <point x="492" y="1286"/>
      <point x="509" y="1382" type="curve" smooth="yes"/>
      <point x="526" y="1478"/>
      <point x="465" y="1556"/>
      <point x="369" y="1556" type="curve" smooth="yes"/>
      <point x="275" y="1556"/>
      <point x="185" y="1482"/>
      <point x="167" y="1382" type="curve" smooth="yes"/>
      <point x="149" y="1282"/>
      <point x="216" y="1212"/>
    </contour>
    <contour>
      <point x="317" y="1266" type="curve" smooth="yes"/>
      <point x="249" y="1266"/>
      <point x="209" y="1313"/>
      <point x="221" y="1382" type="curve" smooth="yes"/>
      <point x="234" y="1454"/>
      <point x="291" y="1502"/>
      <point x="359" y="1502" type="curve" smooth="yes"/>
      <point x="427" y="1502"/>
      <point x="468" y="1454"/>
      <point x="455" y="1382" type="curve" smooth="yes"/>
      <point x="443" y="1313"/>
      <point x="385" y="1266"/>
    </contour>
  </outline>
</glyph>
<glyph name="dblgravecomb" format="2">
  <unicode hex="030F"/>
  <note>
uni030F
</note>
  <outline>
    <contour>
      <point x="-641" y="1252" type="line"/>
      <point x="-568" y="1252" type="line"/>
      <point x="-812" y="1518" type="line"/>
      <point x="-892" y="1518" type="line"/>
    </contour>
    <contour>
      <point x="-412" y="1252" type="line"/>
      <point x="-343" y="1252" type="line"/>
      <point x="-542" y="1518" type="line"/>
      <point x="-618" y="1518" type="line"/>
    </contour>
  </outline>
</glyph>
<glyph name="dotbelowcomb" format="2">
  <unicode hex="0323"/>
  <note>
uni0323
</note>
  <outline>
    <contour>
      <point x="-816" y="-273" type="curve" smooth="yes"/>
      <point x="-785" y="-273"/>
      <point x="-756" y="-249"/>
      <point x="-750" y="-218" type="curve" smooth="yes"/>
      <point x="-745" y="-187"/>
      <point x="-766" y="-162"/>
      <point x="-796" y="-162" type="curve" smooth="yes"/>
      <point x="-827" y="-162"/>
      <point x="-856" y="-187"/>
      <point x="-861" y="-218" type="curve" smooth="yes"/>
      <point x="-867" y="-249"/>
      <point x="-847" y="-273"/>
    </contour>
  </outline>
</glyph>
<glyph name="comma-ethiopic" format="2">
  <advance width="556"/>
  <unicode hex="1363"/>
  <outline>
    <contour>
      <point x="171" y="972" type="line"/>
      <point x="490" y="972" type="line"/>
      <point x="500" y="1029" type="line"/>
      <point x="181" y="1029" type="line"/>
    </contour>
    <component base="period" xOffset="128" yOffset="200"/>
    <component base="period" xOffset="231" yOffset="683"/>
  </outline>
</glyph>
<glyph name="semicolon-ethiopic" format="2">
  <advance width="556"/>
  <unicode hex="1364"/>
  <outline>
    <contour>
      <point x="171" y="965" type="line"/>
      <point x="491" y="965" type="line"/>
      <point x="502" y="1023" type="line"/>
      <point x="182" y="1023" type="line"/>
    </contour>
    <contour>
      <point x="11" y="118" type="line"/>
      <point x="335" y="118" type="line"/>
      <point x="347" y="186" type="line"/>
      <point x="23" y="186" type="line"/>
    </contour>
    <component base="period" xOffset="234" yOffset="692"/>
    <component base="period" xOffset="142" yOffset="318"/>
  </outline>
</glyph>
<glyph name="colon-ethiopic" format="2">
  <advance width="556"/>
  <unicode hex="1365"/>
  <outline>
    <contour>
      <point x="53" y="512" type="line"/>
      <point x="282" y="512" type="line"/>
      <point x="289" y="551" type="line"/>
      <point x="60" y="551" type="line"/>
    </contour>
    <component base="period" xOffset="94" yOffset="218"/>
    <component base="period" xOffset="234" yOffset="753"/>
  </outline>
</glyph>
<glyph name="question-ethiopic" format="2">
  <advance width="556"/>
  <unicode hex="1367"/>
  <outline>
    <contour>
      <point x="199" y="555" type="curve" smooth="yes"/>
      <point x="230" y="555"/>
      <point x="259" y="579"/>
      <point x="265" y="610" type="curve" smooth="yes"/>
      <point x="270" y="641"/>
      <point x="250" y="666"/>
      <point x="219" y="666" type="curve" smooth="yes"/>
      <point x="188" y="666"/>
      <point x="159" y="641"/>
      <point x="154" y="610" type="curve" smooth="yes"/>
      <point x="148" y="579"/>
      <point x="168" y="555"/>
    </contour>
    <component base="period" xOffset="120" yOffset="250"/>
    <component base="period" xOffset="260" yOffset="822"/>
  </outline>
</glyph>
<glyph name="four-ethiopic" format="2">
  <advance width="1456"/>
  <unicode hex="136C"/>
  <outline>
    <contour>
      <point x="548" y="-20" type="curve" smooth="yes"/>
      <point x="823" y="-20"/>
      <point x="1021" y="203"/>
      <point x="1090" y="594" type="curve" smooth="yes"/>
      <point x="1137" y="858" type="line" smooth="yes"/>
      <point x="1206" y="1250"/>
      <point x="1086" y="1477"/>
      <point x="810" y="1477" type="curve" smooth="yes"/>
      <point x="535" y="1477"/>
      <point x="334" y="1249"/>
      <point x="266" y="862" type="curve" smooth="yes"/>
      <point x="220" y="598" type="line" smooth="yes"/>
      <point x="151" y="206"/>
      <point x="275" y="-20"/>
    </contour>
    <contour>
      <point x="557" y="34" type="curve" smooth="yes"/>
      <point x="316" y="34"/>
      <point x="211" y="244"/>
      <point x="273" y="596" type="curve" smooth="yes"/>
      <point x="319" y="857" type="line" smooth="yes"/>
      <point x="383" y="1216"/>
      <point x="555" y="1423"/>
      <point x="800" y="1423" type="curve" smooth="yes"/>
      <point x="1044" y="1423"/>
      <point x="1145" y="1215"/>
      <point x="1083" y="862" type="curve" smooth="yes"/>
      <point x="1037" y="601" type="line" smooth="yes"/>
      <point x="974" y="242"/>
      <point x="800" y="34"/>
    </contour>
    <component base="_num.bar" xOffset="125"/>
  </outline>
</glyph>
<glyph name="thirty-ethiopic" format="2">
  <advance width="1425"/>
  <unicode hex="1374"/>
  <outline>
    <contour>
      <point x="89" y="0" type="line"/>
      <point x="151" y="0" type="line"/>
      <point x="398" y="1402" type="line"/>
      <point x="740" y="1402" type="line"/>
      <point x="493" y="0" type="line"/>
      <point x="989" y="0" type="line" smooth="yes"/>
      <point x="1000" y="0"/>
      <point x="1010" y="9"/>
      <point x="1012" y="20" type="curve" smooth="yes"/>
      <point x="1265" y="1456" type="line"/>
      <point x="1203" y="1456" type="line"/>
      <point x="956" y="54" type="line"/>
      <point x="585" y="54" type="line"/>
      <point x="832" y="1456" type="line"/>
      <point x="365" y="1456" type="line" smooth="yes"/>
      <point x="354" y="1456"/>
      <point x="344" y="1447"/>
      <point x="342" y="1436" type="curve" smooth="yes"/>
    </contour>
    <component base="_num.bar" xOffset="104"/>
  </outline>
</glyph>
<glyph name="forty-ethiopic" format="2">
  <advance width="1150"/>
  <unicode hex="1375"/>
  <outline>
    <contour>
      <point x="667" y="507" type="line"/>
      <point x="721" y="507" type="line"/>
      <point x="882" y="1423" type="line"/>
      <point x="828" y="1423" type="line"/>
    </contour>
    <component base="fifty-ethiopic"/>
  </outline>
</glyph>
<glyph name="ninety-ethiopic" format="2">
  <advance width="1425"/>
  <unicode hex="137A"/>
  <outline>
    <contour>
      <point x="773" y="-1" type="line"/>
      <point x="822" y="-1" type="line"/>
      <point x="687" y="652" type="line"/>
      <point x="1171" y="1422" type="line"/>
      <point x="1177" y="1456" type="line"/>
      <point x="247" y="1456" type="line"/>
      <point x="237" y="1402" type="line"/>
      <point x="1105" y="1402" type="line"/>
      <point x="634" y="652" type="line"/>
    </contour>
    <component base="_num.bar" xOffset="104"/>
  </outline>
</glyph>
<glyph name="uniEE02" format="2">
  <advance width="521"/>
  <unicode hex="EE02"/>
  <note>
uniEE02
</note>
  <outline>
    <contour>
      <point x="59" y="705" type="line"/>
      <point x="114" y="705" type="line"/>
      <point x="180" y="1082" type="line"/>
      <point x="125" y="1082" type="line"/>
    </contour>
    <contour>
      <point x="291" y="705" type="line"/>
      <point x="345" y="705" type="line"/>
      <point x="411" y="1082" type="line"/>
      <point x="357" y="1082" type="line"/>
    </contour>
  </outline>
</glyph>
<glyph name="_smart.fa" format="2">
  <anchor x="252" y="54" name="_fa"/>
  <outline>
    <contour>
      <point x="114" y="526" type="line"/>
      <point x="-36" y="527" type="line"/>
      <point x="-21" y="485" type="line"/>
      <point x="62" y="485" type="line"/>
      <point x="142" y="15" type="line"/>
      <point x="201" y="15" type="line"/>
    </contour>
  </outline>
</glyph>
<glyph name="_smart.hat.left" format="2">
  <anchor x="-184" y="12" name="_hat.left"/>
  <outline>
    <contour>
      <point x="-450" y="109" type="line"/>
      <point x="65" y="109" type="line"/>
      <point x="73" y="153" type="line"/>
      <point x="-442" y="153" type="line"/>
    </contour>
  </outline>
</glyph>
<glyph name="_smart.ho.ring.uniq" format="2">
  <anchor x="-1091" y="-128" name="_ho.ring.uniq"/>
  <outline>
    <contour>
      <point x="-912" y="-344" type="curve" smooth="yes"/>
      <point x="-795" y="-344"/>
      <point x="-678" y="-255"/>
      <point x="-655" y="-128" type="curve" smooth="yes"/>
      <point x="-633" y="0"/>
      <point x="-715" y="94"/>
      <point x="-834" y="94" type="curve" smooth="yes"/>
      <point x="-956" y="94"/>
      <point x="-1070" y="-5"/>
      <point x="-1091" y="-128" type="curve" smooth="yes"/>
      <point x="-1113" y="-250"/>
      <point x="-1034" y="-344"/>
    </contour>
    <contour>
      <point x="-902" y="-288" type="curve" smooth="yes"/>
      <point x="-996" y="-288"/>
      <point x="-1052" y="-223"/>
      <point x="-1035" y="-128" type="curve" smooth="yes"/>
      <point x="-1018" y="-28"/>
      <point x="-938" y="38"/>
      <point x="-844" y="38" type="curve" smooth="yes"/>
      <point x="-750" y="38"/>
      <point x="-694" y="-28"/>
      <point x="-711" y="-128" type="curve" smooth="yes"/>
      <point x="-728" y="-223"/>
      <point x="-808" y="-288"/>
    </contour>
  </outline>
</glyph>
<glyph name="_smart.raa.cap" format="2">
  <anchor x="767" y="235" name="_raa.cap"/>
  <outline>
    <contour>
      <point x="525" y="235" type="line"/>
      <point x="585" y="235" type="line"/>
      <point x="827" y="501" type="line"/>
      <point x="761" y="501" type="line"/>
    </contour>
  </outline>
</glyph>
<glyph name="_smart.ri.cap" format="2">
  <anchor x="767" y="235" name="_ri.cap"/>
  <outline>
    <contour>
      <point x="827" y="235" type="line"/>
      <point x="591" y="501" type="line"/>
      <point x="525" y="501" type="line"/>
      <point x="767" y="235" type="line"/>
    </contour>
  </outline>
</glyph>
<glyph name="_smart.ring" format="2">
  <anchor x="443" y="1025" name="_ring"/>
  <outline>
    <contour>
      <point x="328" y="1032" type="curve" smooth="yes"/>
      <point x="424" y="1032"/>
      <point x="512" y="1106"/>
      <point x="529" y="1202" type="curve" smooth="yes"/>
      <point x="546" y="1298"/>
      <point x="485" y="1376"/>
      <point x="389" y="1376" type="curve" smooth="yes"/>
      <point x="295" y="1376"/>
      <point x="205" y="1302"/>
      <point x="187" y="1202" type="curve" smooth="yes"/>
      <point x="169" y="1102"/>
      <point x="236" y="1032"/>
    </contour>
    <contour>
      <point x="337" y="1086" type="curve" smooth="yes"/>
      <point x="269" y="1086"/>
      <point x="229" y="1133"/>
      <point x="241" y="1202" type="curve" smooth="yes"/>
      <point x="254" y="1274"/>
      <point x="311" y="1322"/>
      <point x="379" y="1322" type="curve" smooth="yes"/>
      <point x="447" y="1322"/>
      <point x="488" y="1274"/>
      <point x="475" y="1202" type="curve" smooth="yes"/>
      <point x="463" y="1133"/>
      <point x="405" y="1086"/>
    </contour>
  </outline>
</glyph>
<glyph name="_smart.yee" format="2">
  <anchor x="-439" y="336" name="_yee"/>
  <outline>
    <contour>
      <point x="-260" y="-79" type="curve" smooth="yes"/>
      <point x="-135" y="-79"/>
      <point x="-21" y="18"/>
      <point x="1" y="142" type="curve" smooth="yes"/>
      <point x="23" y="267"/>
      <point x="-56" y="369"/>
      <point x="-181" y="369" type="curve" smooth="yes"/>
      <point x="-302" y="369"/>
      <point x="-420" y="272"/>
      <point x="-443" y="142" type="curve" smooth="yes"/>
      <point x="-466" y="12"/>
      <point x="-380" y="-79"/>
    </contour>
    <contour>
      <point x="-254" y="-41" type="curve" smooth="yes"/>
      <point x="-356" y="-41"/>
      <point x="-416" y="30"/>
      <point x="-398" y="133" type="curve" smooth="yes"/>
      <point x="-379" y="241"/>
      <point x="-294" y="313"/>
      <point x="-192" y="313" type="curve" smooth="yes"/>
      <point x="-90" y="313"/>
      <point x="-29" y="241"/>
      <point x="-48" y="133" type="curve" smooth="yes"/>
      <point x="-66" y="30"/>
      <point x="-152" y="-41"/>
    </contour>
  </outline>
</glyph>
<glyph name="_smart.yu" format="2">
  <anchor x="149" y="726" name="_yu"/>
  <outline>
    <contour>
      <point x="129" y="751" type="line"/>
      <point x="564" y="751" type="line"/>
      <point x="574" y="805" type="line"/>
      <point x="139" y="805" type="line"/>
    </contour>
    <contour>
      <point x="359" y="651" type="line"/>
      <point x="794" y="651" type="line"/>
      <point x="804" y="705" type="line"/>
      <point x="369" y="705" type="line"/>
    </contour>
  </outline>
</glyph>
<glyph name="aGl.base.cap" format="2">
  <advance width="1112"/>
  <anchor x="853" y="-24" name="haa"/>
  <anchor x="330" y="1677" name="hat"/>
  <anchor x="330" y="1677" name="hat.left"/>
  <anchor x="860" y="-1" name="hee"/>
  <anchor x="-134" y="-32" name="ho"/>
  <anchor x="773" y="965" name="hu"/>
  <anchor x="881" y="-31" name="hwa"/>
  <anchor x="1007" y="4" name="ni"/>
  <outline>
    <contour>
      <point x="-158" y="0" type="line"/>
      <point x="-105" y="0" type="line"/>
      <point x="580" y="1238" type="line"/>
      <point x="826" y="0" type="line"/>
      <point x="887" y="0" type="line"/>
      <point x="624" y="1294" type="line"/>
      <point x="633" y="1356" type="line"/>
      <point x="158" y="1356" type="line"/>
      <point x="214" y="1673" type="line"/>
      <point x="160" y="1673" type="line"/>
      <point x="93" y="1294" type="line"/>
      <point x="554" y="1294" type="line"/>
    </contour>
  </outline>
</glyph>
<glyph name="ga.base" format="2">
  <advance width="881"/>
  <anchor x="511" y="21" name="haa"/>
  <anchor x="370" y="-45" name="haa.acute"/>
  <anchor x="395" y="1367" name="hat"/>
  <anchor x="256" y="1176" name="hat.left"/>
  <anchor x="460" y="630" name="he.left.outer"/>
  <anchor x="396" y="40" name="hee"/>
  <anchor x="545" y="50" name="hi"/>
  <anchor x="375" y="860" name="ho.ring"/>
  <anchor x="641" y="638" name="hu"/>
  <anchor x="411" y="0" name="hwa"/>
  <anchor x="256" y="1102" name="neck"/>
  <anchor x="145" y="1101" name="neck.left"/>
  <anchor x="31" y="1235" name="nose"/>
  <anchor x="-5" y="1085" name="nose.extend"/>
  <anchor x="426" y="1060" name="ring"/>
  <anchor x="400" y="1" name="xwaa"/>
  <outline>
    <contour>
      <point x="431" y="0" type="line"/>
      <point x="486" y="0" type="line"/>
      <point x="610" y="706" type="line" smooth="yes"/>
      <point x="657" y="971"/>
      <point x="567" y="1102"/>
      <point x="335" y="1102" type="curve"/>
      <point x="119" y="1102" type="line"/>
      <point x="110" y="1049" type="line"/>
      <point x="323" y="1049" type="line"/>
      <point x="526" y="1049"/>
      <point x="597" y="940"/>
      <point x="556" y="708" type="curve" smooth="yes"/>
    </contour>
  </outline>
</glyph>
<glyph name="la.base.cap" format="2">
  <advance width="1211"/>
  <anchor x="957" y="-8" name="haa"/>
  <anchor x="862" y="77" name="hee"/>
  <anchor x="1013" y="50" name="hi"/>
  <anchor x="1102" y="1076" name="ho.ring"/>
  <anchor x="-38" y="243" name="ho.ring.uniq"/>
  <anchor x="771" y="1081" name="hu"/>
  <anchor x="957" y="9" name="hwa"/>
  <outline>
    <contour>
      <point x="-158" y="0" type="line"/>
      <point x="-109" y="0" type="line"/>
      <point x="628" y="1242" type="line"/>
      <point x="927" y="0" type="line"/>
      <point x="986" y="0" type="line"/>
      <point x="610" y="1553" type="line"/>
      <point x="574" y="1523" type="line"/>
      <point x="618" y="1296" type="line"/>
    </contour>
  </outline>
</glyph>
<glyph name="la.base" format="2">
  <advance width="1241"/>
  <anchor x="218" y="1342" name="aGlhat"/>
  <anchor x="789" y="-40" name="haa"/>
  <anchor x="398.963" y="598" name="he.left.inner"/>
  <anchor x="685" y="110" name="hee"/>
  <anchor x="869" y="50" name="hi"/>
  <anchor x="65" y="-21" name="ho"/>
  <anchor x="1137" y="508" name="ho.ring"/>
  <anchor x="37" y="-12" name="ho.ring.uniq"/>
  <anchor x="976" y="667" name="hu"/>
  <anchor x="794" y="-34" name="hwa"/>
  <outline>
    <contour>
      <point x="41" y="0" type="line"/>
      <point x="95" y="0" type="line"/>
      <point x="217" y="693" type="line"/>
      <point x="302" y="902"/>
      <point x="475" y="1049"/>
      <point x="661" y="1049" type="curve" smooth="yes"/>
      <point x="864" y="1049"/>
      <point x="935" y="940"/>
      <point x="894" y="708" type="curve" smooth="yes"/>
      <point x="769" y="0" type="line"/>
      <point x="823" y="0" type="line"/>
      <point x="948" y="706" type="line" smooth="yes"/>
      <point x="995" y="971"/>
      <point x="906" y="1102"/>
      <point x="674" y="1102" type="curve" smooth="yes"/>
      <point x="507" y="1102"/>
      <point x="342" y="998"/>
      <point x="242" y="830" type="curve"/>
      <point x="366" y="1536" type="line"/>
      <point x="312" y="1536" type="line"/>
    </contour>
  </outline>
</glyph>
<glyph name="pa.base" format="2">
  <advance width="783"/>
  <anchor x="318" y="102" name="haa"/>
  <anchor x="179" y="-11" name="haa.acute"/>
  <anchor x="416" y="1339" name="hat"/>
  <anchor x="319" y="1167" name="he.acute.top"/>
  <anchor x="131" y="71" name="he.left.outer"/>
  <anchor x="229" y="0" name="hee"/>
  <anchor x="251" y="50" name="hi"/>
  <anchor x="614" y="1275" name="ho.ring"/>
  <anchor x="349" y="669" name="hu"/>
  <anchor x="190" y="20" name="hwa"/>
  <anchor x="343" y="1082" name="neck"/>
  <outline>
    <contour>
      <point x="210" y="0" type="line"/>
      <point x="391" y="1027" type="line"/>
      <point x="697" y="1027" type="line"/>
      <point x="707" y="1082" type="line"/>
      <point x="96" y="1082" type="line"/>
      <point x="86" y="1027" type="line"/>
      <point x="336" y="1027" type="line"/>
      <point x="155" y="0" type="line"/>
    </contour>
  </outline>
</glyph>
<glyph name="ra.base.cap" format="2">
  <advance width="1057"/>
  <anchor x="580" y="91" name="fa"/>
  <anchor x="424" y="3" name="haa"/>
  <anchor x="412" y="-4" name="haa.acute"/>
  <anchor x="352" y="1360" name="hat.left"/>
  <anchor x="803" y="20" name="hee"/>
  <anchor x="779" y="185" name="raa.cap"/>
  <anchor x="830" y="154" name="ri.cap"/>
  <outline>
    <contour>
      <point x="9" y="0" type="line"/>
      <point x="811" y="0" type="line"/>
      <point x="821" y="54" type="line"/>
      <point x="74" y="54" type="line"/>
      <point x="321" y="1456" type="line"/>
      <point x="266" y="1456" type="line"/>
    </contour>
  </outline>
</glyph>
<glyph name="ra.base" format="2">
  <advance width="1219"/>
  <anchor x="762" y="70" name="fa"/>
  <anchor x="500" y="-93" name="haa"/>
  <anchor x="535" y="-91" name="haa.acute"/>
  <anchor x="597" y="1041" name="hat"/>
  <anchor x="361" y="1041" name="hat.left"/>
  <anchor x="1017" y="-16" name="hee"/>
  <anchor x="935" y="985" name="ho.ring"/>
  <anchor x="607" y="-140" name="hu"/>
  <anchor x="589" y="-20" name="hwa"/>
  <anchor x="999" y="305" name="ra"/>
  <anchor x="719" y="125" name="raa"/>
  <anchor x="929" y="134" name="ri"/>
  <outline>
    <contour>
      <point x="529" y="-24" type="curve"/>
      <point x="969" y="-24" type="line"/>
      <point x="977" y="24" type="line"/>
      <point x="518" y="24" type="line"/>
      <point x="249" y="34"/>
      <point x="254" y="270"/>
      <point x="298" y="517" type="curve" smooth="yes"/>
      <point x="398" y="1082" type="line"/>
      <point x="343" y="1082" type="line"/>
      <point x="244" y="524" type="line" smooth="yes"/>
      <point x="184" y="187"/>
      <point x="237" y="-20"/>
    </contour>
  </outline>
</glyph>
<glyph name="sa.base" format="2">
  <advance width="1976"/>
  <anchor x="1397" y="0" name="haa"/>
  <anchor x="678" y="-94" name="he.acute.bottom"/>
  <anchor x="1383" y="0" name="hee"/>
  <anchor x="1433" y="-306" name="hi"/>
  <anchor x="98" y="5" name="ho"/>
  <anchor x="1704" y="701" name="hu"/>
  <anchor x="1375" y="-70" name="hwa"/>
  <outline>
    <contour>
      <point x="381" y="-20" type="curve" smooth="yes"/>
      <point x="560" y="-20"/>
      <point x="732" y="80"/>
      <point x="824" y="236" type="curve"/>
      <point x="828" y="55"/>
      <point x="984" y="-20"/>
      <point x="1165" y="-20" type="curve" smooth="yes"/>
      <point x="1384" y="-20"/>
      <point x="1585" y="162"/>
      <point x="1627" y="399" type="curve" smooth="yes"/>
      <point x="1747" y="1082" type="line"/>
      <point x="1692" y="1082" type="line"/>
      <point x="1571" y="398" type="line" smooth="yes"/>
      <point x="1537" y="207"/>
      <point x="1354" y="33"/>
      <point x="1177" y="33" type="curve" smooth="yes"/>
      <point x="972" y="33"/>
      <point x="850" y="138"/>
      <point x="888" y="355" type="curve" smooth="yes"/>
      <point x="1016" y="1082" type="line"/>
      <point x="962" y="1082" type="line"/>
      <point x="835" y="362" type="line" smooth="yes"/>
      <point x="817" y="259"/>
      <point x="652" y="37"/>
      <point x="393" y="33" type="curve" smooth="yes"/>
      <point x="189" y="30"/>
      <point x="116" y="143"/>
      <point x="158" y="380" type="curve" smooth="yes"/>
      <point x="282" y="1082" type="line"/>
      <point x="228" y="1082" type="line"/>
      <point x="104" y="376" type="line" smooth="yes"/>
      <point x="58" y="112"/>
      <point x="148" y="-20"/>
    </contour>
  </outline>
</glyph>
<glyph name="tsa.base" format="2">
  <advance width="1032"/>
  <anchor x="710" y="-6" name="haa"/>
  <anchor x="643" y="1353" name="hat"/>
  <anchor x="995" y="788" name="he"/>
  <anchor x="624" y="70" name="hee"/>
  <anchor x="763" y="50" name="hi"/>
  <anchor x="14" y="-13" name="ho"/>
  <anchor x="778" y="459" name="hu"/>
  <anchor x="708" y="6" name="hwa"/>
  <anchor x="543" y="1105" name="neck"/>
  <outline>
    <contour>
      <point x="-15" y="0" type="line"/>
      <point x="40" y="0" type="line"/>
      <point x="90" y="285" type="line" smooth="yes"/>
      <point x="111" y="403"/>
      <point x="246" y="530"/>
      <point x="454" y="530" type="curve" smooth="yes"/>
      <point x="663" y="530"/>
      <point x="753" y="403"/>
      <point x="732" y="285" type="curve" smooth="yes"/>
      <point x="682" y="0" type="line"/>
      <point x="736" y="0" type="line"/>
      <point x="788" y="292" type="line" smooth="yes"/>
      <point x="816" y="447"/>
      <point x="681" y="515"/>
      <point x="560" y="554" type="curve"/>
      <point x="772" y="610"/>
      <point x="857" y="690"/>
      <point x="881" y="829" type="curve" smooth="yes"/>
      <point x="909" y="988"/>
      <point x="783" y="1102"/>
      <point x="568" y="1102" type="curve" smooth="yes"/>
      <point x="328" y="1102"/>
      <point x="160" y="988"/>
      <point x="132" y="829" type="curve" smooth="yes"/>
      <point x="108" y="690"/>
      <point x="165" y="610"/>
      <point x="357" y="554" type="curve"/>
      <point x="224" y="516"/>
      <point x="65" y="452"/>
      <point x="37" y="292" type="curve" smooth="yes"/>
    </contour>
    <contour>
      <point x="463" y="581" type="curve" smooth="yes"/>
      <point x="296" y="581"/>
      <point x="159" y="672"/>
      <point x="187" y="831" type="curve" smooth="yes"/>
      <point x="209" y="955"/>
      <point x="344" y="1048"/>
      <point x="558" y="1048" type="curve" smooth="yes"/>
      <point x="747" y="1048"/>
      <point x="850" y="955"/>
      <point x="828" y="831" type="curve" smooth="yes"/>
      <point x="800" y="672"/>
      <point x="631" y="581"/>
    </contour>
  </outline>
</glyph>
<glyph name="wa.base" format="2">
  <advance width="1500"/>
  <anchor x="580" y="0" name="haa"/>
  <anchor x="531" y="-90" name="haa.acute"/>
  <anchor x="879" y="1363" name="hat"/>
  <anchor x="778" y="1232" name="he.acute.top"/>
  <anchor x="626" y="0" name="hee"/>
  <anchor x="622" y="-289" name="hi"/>
  <anchor x="981" y="1340" name="ho.ring"/>
  <anchor x="1315" y="743" name="hu"/>
  <anchor x="561" y="0" name="hwa"/>
  <anchor x="727" y="1102" name="neck"/>
  <outline>
    <contour>
      <point x="382" y="-20" type="curve" smooth="yes"/>
      <point x="424" y="-20"/>
      <point x="463" y="-8"/>
      <point x="560" y="37" type="curve"/>
      <point x="590" y="38" type="line"/>
      <point x="627" y="7"/>
      <point x="656" y="-20"/>
      <point x="735" y="-20" type="curve" smooth="yes"/>
      <point x="986" y="-20"/>
      <point x="1178" y="191"/>
      <point x="1239" y="538" type="curve" smooth="yes"/>
      <point x="1302" y="897"/>
      <point x="1188" y="1102"/>
      <point x="931" y="1102" type="curve" smooth="yes"/>
      <point x="881" y="1102"/>
      <point x="833" y="1095"/>
      <point x="790" y="1082" type="curve"/>
      <point x="723" y="1081" type="line"/>
      <point x="679" y="1096"/>
      <point x="633" y="1102"/>
      <point x="582" y="1102" type="curve" smooth="yes"/>
      <point x="329" y="1102"/>
      <point x="137" y="897"/>
      <point x="77" y="552" type="curve" smooth="yes"/>
      <point x="13" y="191"/>
      <point x="128" y="-20"/>
    </contour>
    <contour>
      <point x="390" y="34" type="curve" smooth="yes"/>
      <point x="167" y="34"/>
      <point x="75" y="224"/>
      <point x="129" y="531" type="curve" smooth="yes"/>
      <point x="189" y="871"/>
      <point x="350" y="1048"/>
      <point x="571" y="1048" type="curve" smooth="yes"/>
      <point x="625" y="1048"/>
      <point x="673" y="1040"/>
      <point x="713" y="1024" type="curve"/>
      <point x="545" y="70" type="line"/>
      <point x="487" y="46"/>
      <point x="435" y="34"/>
    </contour>
    <contour>
      <point x="745" y="34" type="curve" smooth="yes"/>
      <point x="703" y="34"/>
      <point x="663" y="40"/>
      <point x="614" y="65" type="curve"/>
      <point x="783" y="1028" type="line"/>
      <point x="820" y="1039"/>
      <point x="855" y="1045"/>
      <point x="887" y="1048" type="curve" smooth="yes"/>
      <point x="1148" y="1071"/>
      <point x="1237" y="842"/>
      <point x="1182" y="531" type="curve" smooth="yes"/>
      <point x="1128" y="224"/>
      <point x="976" y="34"/>
    </contour>
  </outline>
</glyph>
<glyph name="xwaa-ethiopic.liga" format="2">
  <advance width="957"/>
  <anchor x="492" y="8" name="haa.acute"/>
  <anchor x="352" y="1665" name="hat.caps"/>
  <anchor x="114" y="1305" name="he.ring.uniq"/>
  <anchor x="466" y="11" name="hee"/>
  <anchor x="651" y="65" name="hi"/>
  <anchor x="446" y="1464" name="ho"/>
  <anchor x="468" y="1315" name="ho.ring"/>
  <anchor x="760" y="955" name="hu"/>
  <anchor x="412" y="1463" name="neck.caps"/>
  <anchor x="147" y="1452" name="neck.left.caps"/>
  <anchor x="72" y="1625" name="nose"/>
  <outline>
    <contour>
      <point x="543" y="-323" type="line"/>
      <point x="602" y="-288" type="line"/>
      <point x="661" y="43" type="line"/>
      <point x="146" y="43" type="line"/>
      <point x="138" y="-1" type="line"/>
      <point x="600" y="-1" type="line"/>
    </contour>
    <component base="ga.base.cap"/>
    <component base="_smart.neck.left.caps" xOffset="315" yOffset="1466"/>
    <component base="_smart.nose" xOffset="3" yOffset="1524"/>
  </outline>
</glyph>
<glyph name="ya.base" format="2">
  <advance width="1090"/>
  <anchor x="-262" y="44" name="da"/>
  <anchor x="401" y="-109" name="di"/>
  <anchor x="403" y="114" name="du"/>
  <anchor x="536" y="-30" name="haa"/>
  <anchor x="195" y="-75" name="haa.acute"/>
  <anchor x="520" y="1341" name="hat"/>
  <anchor x="1069" y="756" name="he"/>
  <anchor x="342" y="1070" name="he.left.outer"/>
  <anchor x="615" y="1" name="hee"/>
  <anchor x="655" y="11" name="hha"/>
  <anchor x="519" y="-309" name="hi"/>
  <anchor x="-136" y="-20" name="ho"/>
  <anchor x="532" y="159" name="hu"/>
  <anchor x="536" y="-50" name="hwa"/>
  <anchor x="572" y="1112" name="neck"/>
  <anchor x="33" y="57" name="ye"/>
  <anchor x="320" y="5" name="ye.extend"/>
  <anchor x="195" y="321" name="yee"/>
  <anchor x="153" y="381" name="yi"/>
  <anchor x="153" y="255" name="yu"/>
  <outline>
    <contour>
      <point x="84" y="0" type="line"/>
      <point x="138" y="0" type="line"/>
      <point x="102" y="577" type="line"/>
      <point x="853" y="577" type="line" smooth="yes"/>
      <point x="864" y="577"/>
      <point x="874" y="586"/>
      <point x="883" y="634" type="curve" smooth="yes"/>
      <point x="932" y="914"/>
      <point x="835" y="1102"/>
      <point x="594" y="1102" type="curve" smooth="yes"/>
      <point x="429" y="1102"/>
      <point x="263" y="1004"/>
      <point x="153" y="837" type="curve" smooth="yes"/>
      <point x="108" y="768"/>
      <point x="55" y="673"/>
      <point x="52" y="572" type="curve"/>
    </contour>
    <contour>
      <point x="114" y="631" type="line"/>
      <point x="182" y="874"/>
      <point x="374" y="1048"/>
      <point x="585" y="1048" type="curve" smooth="yes"/>
      <point x="810" y="1048"/>
      <point x="868" y="856"/>
      <point x="828" y="631" type="curve"/>
    </contour>
  </outline>
</glyph>
<glyph name="zero.frac0" format="2">
  <advance width="751"/>
  <note>
glyph00455
</note>
  <outline>
    <contour>
      <point x="171" y="-11" type="curve" smooth="yes"/>
      <point x="346" y="-11"/>
      <point x="461" y="110"/>
      <point x="499" y="327" type="curve" smooth="yes"/>
      <point x="523" y="462" type="line" smooth="yes"/>
      <point x="561" y="679"/>
      <point x="487" y="800"/>
      <point x="313" y="800" type="curve" smooth="yes"/>
      <point x="141" y="800"/>
      <point x="23" y="679"/>
      <point x="-15" y="462" type="curve" smooth="yes"/>
      <point x="-39" y="327" type="line" smooth="yes"/>
      <point x="-77" y="110"/>
      <point x="1" y="-11"/>
    </contour>
    <contour>
      <point x="180" y="37" type="curve" smooth="yes"/>
      <point x="44" y="37"/>
      <point x="-19" y="141"/>
      <point x="13" y="322" type="curve" smooth="yes"/>
      <point x="38" y="465" type="line" smooth="yes"/>
      <point x="71" y="649"/>
      <point x="167" y="751"/>
      <point x="305" y="751" type="curve" smooth="yes"/>
      <point x="443" y="751"/>
      <point x="502" y="647"/>
      <point x="471" y="467" type="curve" smooth="yes"/>
      <point x="445" y="324" type="line" smooth="yes"/>
      <point x="413" y="140"/>
      <point x="318" y="37"/>
    </contour>
  </outline>
</glyph>
